<svg xmlns="http://www.w3.org/2000/svg" viewBox="0 0 64 64"><rect width="64" height="64" rx="12" fill="#EEF1F4"/><g transform="translate(32 32)" fill="#1E3A5F"><path d="M-4-30h8l1.4 6.2a20 20 0 0 1 5.7 2.4l5.4-3.4 5.6 5.6-3.4 5.4a20 20 0 0 1 2.4 5.7L32-4v8l-6.2 1.4a20 20 0 0 1-2.4 5.7l3.4 5.4-5.6 5.6-5.4-3.4a20 20 0 0 1-5.7 2.4L4 32h-8l-1.4-6.2a20 20 0 0 1-5.7-2.4l-5.4 3.4-5.6-5.6 3.4-5.4a20 20 0 0 1-2.4-5.7L-32 4v-8l6.2-1.4a20 20 0 0 1 2.4-5.7l-3.4-5.4 5.6-5.6 5.4 3.4a20 20 0 0 1 5.7-2.4z"/></g><circle cx="32" cy="32" r="8.5" fill="#EEF1F4"/><circle cx="32" cy="32" r="5" fill="#E8590C"/></svg>